<?xml version="1.0" encoding="utf-8" standalone="no"?>
<!DOCTYPE svg PUBLIC "-//W3C//DTD SVG 1.1//EN"
  "http://www.w3.org/Graphics/SVG/1.1/DTD/svg11.dtd">
<svg height="432pt" version="1.1" viewBox="0 0 792 432" width="792pt" xmlns="http://www.w3.org/2000/svg" xmlns:xlink="http://www.w3.org/1999/xlink">
 <metadata>
  <rdf:RDF xmlns:cc="http://creativecommons.org/ns#" xmlns:dc="http://purl.org/dc/elements/1.1/" xmlns:rdf="http://www.w3.org/1999/02/22-rdf-syntax-ns#">
   <cc:Work>
    <dc:type rdf:resource="http://purl.org/dc/dcmitype/StillImage"/>
    <dc:date>2022-03-08T22:21:04.870252</dc:date>
    <dc:format>image/svg+xml</dc:format>
    <dc:creator>
     <cc:Agent>
      <dc:title>Matplotlib v3.4.3, https://matplotlib.org/</dc:title>
     </cc:Agent>
    </dc:creator>
   </cc:Work>
  </rdf:RDF>
 </metadata>
 <defs>
  <style type="text/css">*{stroke-linecap:butt;stroke-linejoin:round;}</style>
 </defs>
 <g id="figure_1">
  <g id="patch_1">
   <path d="M 0 432 
L 792 432 
L 792 0 
L 0 0 
z
" style="fill:none;"/>
  </g>
  <g id="axes_1">
   <g id="patch_2">
    <path d="M 99 378 
L 712.8 378 
L 712.8 51.84 
L 99 51.84 
z
" style="fill:#ffffff;"/>
   </g>
   <g id="patch_3">
    <path clip-path="url(#p13e9e5cd06)" d="M 154.522613 378 
L 164.577708 378 
L 164.577708 377.7042 
L 154.522613 377.7042 
z
" style="fill:#1f77b4;opacity:0.4;"/>
   </g>
   <g id="patch_4">
    <path clip-path="url(#p13e9e5cd06)" d="M 164.577708 378 
L 174.632804 378 
L 174.632804 377.998618 
L 164.577708 377.998618 
z
" style="fill:#1f77b4;opacity:0.4;"/>
   </g>
   <g id="patch_5">
    <path clip-path="url(#p13e9e5cd06)" d="M 174.632804 378 
L 184.687899 378 
L 184.687899 377.28446 
L 174.632804 377.28446 
z
" style="fill:#1f77b4;opacity:0.4;"/>
   </g>
   <g id="patch_6">
    <path clip-path="url(#p13e9e5cd06)" d="M 184.687899 378 
L 194.742995 378 
L 194.742995 377.99401 
L 184.687899 377.99401 
z
" style="fill:#1f77b4;opacity:0.4;"/>
   </g>
   <g id="patch_7">
    <path clip-path="url(#p13e9e5cd06)" d="M 194.742995 378 
L 204.79809 378 
L 204.79809 377.982492 
L 194.742995 377.982492 
z
" style="fill:#1f77b4;opacity:0.4;"/>
   </g>
   <g id="patch_8">
    <path clip-path="url(#p13e9e5cd06)" d="M 204.79809 378 
L 214.853186 378 
L 214.853186 377.999539 
L 204.79809 377.999539 
z
" style="fill:#1f77b4;opacity:0.4;"/>
   </g>
   <g id="patch_9">
    <path clip-path="url(#p13e9e5cd06)" d="M 214.853186 378 
L 224.908281 378 
L 224.908281 377.555379 
L 214.853186 377.555379 
z
" style="fill:#1f77b4;opacity:0.4;"/>
   </g>
   <g id="patch_10">
    <path clip-path="url(#p13e9e5cd06)" d="M 224.908281 378 
L 234.963377 378 
L 234.963377 377.683928 
L 224.908281 377.683928 
z
" style="fill:#1f77b4;opacity:0.4;"/>
   </g>
   <g id="patch_11">
    <path clip-path="url(#p13e9e5cd06)" d="M 234.963377 378 
L 245.018472 378 
L 245.018472 377.953465 
L 234.963377 377.953465 
z
" style="fill:#1f77b4;opacity:0.4;"/>
   </g>
   <g id="patch_12">
    <path clip-path="url(#p13e9e5cd06)" d="M 245.018472 378 
L 255.073568 378 
L 255.073568 377.988481 
L 245.018472 377.988481 
z
" style="fill:#1f77b4;opacity:0.4;"/>
   </g>
   <g id="patch_13">
    <path clip-path="url(#p13e9e5cd06)" d="M 255.073568 378 
L 265.128663 378 
L 265.128663 377.985717 
L 255.073568 377.985717 
z
" style="fill:#1f77b4;opacity:0.4;"/>
   </g>
   <g id="patch_14">
    <path clip-path="url(#p13e9e5cd06)" d="M 265.128663 378 
L 275.183759 378 
L 275.183759 377.91384 
L 265.128663 377.91384 
z
" style="fill:#1f77b4;opacity:0.4;"/>
   </g>
   <g id="patch_15">
    <path clip-path="url(#p13e9e5cd06)" d="M 275.183759 378 
L 285.238854 378 
L 285.238854 377.90739 
L 275.183759 377.90739 
z
" style="fill:#1f77b4;opacity:0.4;"/>
   </g>
   <g id="patch_16">
    <path clip-path="url(#p13e9e5cd06)" d="M 285.238854 378 
L 295.29395 378 
L 295.29395 377.946093 
L 285.238854 377.946093 
z
" style="fill:#1f77b4;opacity:0.4;"/>
   </g>
   <g id="patch_17">
    <path clip-path="url(#p13e9e5cd06)" d="M 295.29395 378 
L 305.349045 378 
L 305.349045 377.937338 
L 295.29395 377.937338 
z
" style="fill:#1f77b4;opacity:0.4;"/>
   </g>
   <g id="patch_18">
    <path clip-path="url(#p13e9e5cd06)" d="M 305.349045 378 
L 315.404141 378 
L 315.404141 377.978806 
L 305.349045 377.978806 
z
" style="fill:#1f77b4;opacity:0.4;"/>
   </g>
   <g id="patch_19">
    <path clip-path="url(#p13e9e5cd06)" d="M 315.404141 378 
L 325.459236 378 
L 325.459236 377.057312 
L 315.404141 377.057312 
z
" style="fill:#1f77b4;opacity:0.4;"/>
   </g>
   <g id="patch_20">
    <path clip-path="url(#p13e9e5cd06)" d="M 325.459236 378 
L 335.514332 378 
L 335.514332 377.258197 
L 325.459236 377.258197 
z
" style="fill:#1f77b4;opacity:0.4;"/>
   </g>
   <g id="patch_21">
    <path clip-path="url(#p13e9e5cd06)" d="M 335.514332 378 
L 345.569427 378 
L 345.569427 377.914301 
L 335.514332 377.914301 
z
" style="fill:#1f77b4;opacity:0.4;"/>
   </g>
   <g id="patch_22">
    <path clip-path="url(#p13e9e5cd06)" d="M 345.569427 378 
L 355.624523 378 
L 355.624523 143.711041 
L 345.569427 143.711041 
z
" style="fill:#1f77b4;opacity:0.4;"/>
   </g>
   <g id="patch_23">
    <path clip-path="url(#p13e9e5cd06)" d="M 355.624523 378 
L 365.679618 378 
L 365.679618 377.996775 
L 355.624523 377.996775 
z
" style="fill:#1f77b4;opacity:0.4;"/>
   </g>
   <g id="patch_24">
    <path clip-path="url(#p13e9e5cd06)" d="M 365.679618 378 
L 375.734714 378 
L 375.734714 377.995393 
L 365.679618 377.995393 
z
" style="fill:#1f77b4;opacity:0.4;"/>
   </g>
   <g id="patch_25">
    <path clip-path="url(#p13e9e5cd06)" d="M 375.734714 378 
L 385.789809 378 
L 385.789809 377.96314 
L 375.734714 377.96314 
z
" style="fill:#1f77b4;opacity:0.4;"/>
   </g>
   <g id="patch_26">
    <path clip-path="url(#p13e9e5cd06)" d="M 385.789809 378 
L 395.844905 378 
L 395.844905 377.841503 
L 385.789809 377.841503 
z
" style="fill:#1f77b4;opacity:0.4;"/>
   </g>
   <g id="patch_27">
    <path clip-path="url(#p13e9e5cd06)" d="M 395.844905 378 
L 405.9 378 
L 405.9 377.995393 
L 395.844905 377.995393 
z
" style="fill:#1f77b4;opacity:0.4;"/>
   </g>
   <g id="patch_28">
    <path clip-path="url(#p13e9e5cd06)" d="M 405.9 378 
L 415.955095 378 
L 415.955095 377.972816 
L 405.9 377.972816 
z
" style="fill:#1f77b4;opacity:0.4;"/>
   </g>
   <g id="patch_29">
    <path clip-path="url(#p13e9e5cd06)" d="M 415.955095 378 
L 426.010191 378 
L 426.010191 377.996314 
L 415.955095 377.996314 
z
" style="fill:#1f77b4;opacity:0.4;"/>
   </g>
   <g id="patch_30">
    <path clip-path="url(#p13e9e5cd06)" d="M 426.010191 378 
L 436.065286 378 
L 436.065286 377.994471 
L 426.010191 377.994471 
z
" style="fill:#1f77b4;opacity:0.4;"/>
   </g>
   <g id="patch_31">
    <path clip-path="url(#p13e9e5cd06)" d="M 436.065286 378 
L 446.120382 378 
L 446.120382 377.998618 
L 436.065286 377.998618 
z
" style="fill:#1f77b4;opacity:0.4;"/>
   </g>
   <g id="patch_32">
    <path clip-path="url(#p13e9e5cd06)" d="M 446.120382 378 
L 456.175477 378 
L 456.175477 377.984795 
L 446.120382 377.984795 
z
" style="fill:#1f77b4;opacity:0.4;"/>
   </g>
   <g id="patch_33">
    <path clip-path="url(#p13e9e5cd06)" d="M 456.175477 378 
L 466.230573 378 
L 466.230573 377.99355 
L 456.175477 377.99355 
z
" style="fill:#1f77b4;opacity:0.4;"/>
   </g>
   <g id="patch_34">
    <path clip-path="url(#p13e9e5cd06)" d="M 466.230573 378 
L 476.285668 378 
L 476.285668 377.98157 
L 466.230573 377.98157 
z
" style="fill:#1f77b4;opacity:0.4;"/>
   </g>
   <g id="patch_35">
    <path clip-path="url(#p13e9e5cd06)" d="M 476.285668 378 
L 486.340764 378 
L 486.340764 355.427541 
L 476.285668 355.427541 
z
" style="fill:#1f77b4;opacity:0.4;"/>
   </g>
   <g id="patch_36">
    <path clip-path="url(#p13e9e5cd06)" d="M 486.340764 378 
L 496.395859 378 
L 496.395859 377.915683 
L 486.340764 377.915683 
z
" style="fill:#1f77b4;opacity:0.4;"/>
   </g>
   <g id="patch_37">
    <path clip-path="url(#p13e9e5cd06)" d="M 496.395859 378 
L 506.450955 378 
L 506.450955 377.980649 
L 496.395859 377.980649 
z
" style="fill:#1f77b4;opacity:0.4;"/>
   </g>
   <g id="patch_38">
    <path clip-path="url(#p13e9e5cd06)" d="M 506.450955 378 
L 516.50605 378 
L 516.50605 377.98756 
L 506.450955 377.98756 
z
" style="fill:#1f77b4;opacity:0.4;"/>
   </g>
   <g id="patch_39">
    <path clip-path="url(#p13e9e5cd06)" d="M 516.50605 378 
L 526.561146 378 
L 526.561146 377.953925 
L 516.50605 377.953925 
z
" style="fill:#1f77b4;opacity:0.4;"/>
   </g>
   <g id="patch_40">
    <path clip-path="url(#p13e9e5cd06)" d="M 526.561146 378 
L 536.616241 378 
L 536.616241 377.951161 
L 526.561146 377.951161 
z
" style="fill:#1f77b4;opacity:0.4;"/>
   </g>
   <g id="patch_41">
    <path clip-path="url(#p13e9e5cd06)" d="M 536.616241 378 
L 546.671337 378 
L 546.671337 377.914301 
L 536.616241 377.914301 
z
" style="fill:#1f77b4;opacity:0.4;"/>
   </g>
   <g id="patch_42">
    <path clip-path="url(#p13e9e5cd06)" d="M 546.671337 378 
L 556.726432 378 
L 556.726432 377.863158 
L 546.671337 377.863158 
z
" style="fill:#1f77b4;opacity:0.4;"/>
   </g>
   <g id="patch_43">
    <path clip-path="url(#p13e9e5cd06)" d="M 556.726432 378 
L 566.781528 378 
L 566.781528 377.997236 
L 556.726432 377.997236 
z
" style="fill:#1f77b4;opacity:0.4;"/>
   </g>
   <g id="patch_44">
    <path clip-path="url(#p13e9e5cd06)" d="M 566.781528 378 
L 576.836623 378 
L 576.836623 377.952543 
L 566.781528 377.952543 
z
" style="fill:#1f77b4;opacity:0.4;"/>
   </g>
   <g id="patch_45">
    <path clip-path="url(#p13e9e5cd06)" d="M 576.836623 378 
L 586.891719 378 
L 586.891719 377.973737 
L 576.836623 377.973737 
z
" style="fill:#1f77b4;opacity:0.4;"/>
   </g>
   <g id="patch_46">
    <path clip-path="url(#p13e9e5cd06)" d="M 586.891719 378 
L 596.946814 378 
L 596.946814 377.8521 
L 586.891719 377.8521 
z
" style="fill:#1f77b4;opacity:0.4;"/>
   </g>
   <g id="patch_47">
    <path clip-path="url(#p13e9e5cd06)" d="M 596.946814 378 
L 607.00191 378 
L 607.00191 377.992167 
L 596.946814 377.992167 
z
" style="fill:#1f77b4;opacity:0.4;"/>
   </g>
   <g id="patch_48">
    <path clip-path="url(#p13e9e5cd06)" d="M 607.00191 378 
L 617.057005 378 
L 617.057005 377.995393 
L 607.00191 377.995393 
z
" style="fill:#1f77b4;opacity:0.4;"/>
   </g>
   <g id="patch_49">
    <path clip-path="url(#p13e9e5cd06)" d="M 617.057005 378 
L 627.112101 378 
L 627.112101 377.974659 
L 617.057005 377.974659 
z
" style="fill:#1f77b4;opacity:0.4;"/>
   </g>
   <g id="patch_50">
    <path clip-path="url(#p13e9e5cd06)" d="M 627.112101 378 
L 637.167196 378 
L 637.167196 377.998618 
L 627.112101 377.998618 
z
" style="fill:#1f77b4;opacity:0.4;"/>
   </g>
   <g id="patch_51">
    <path clip-path="url(#p13e9e5cd06)" d="M 637.167196 378 
L 647.222292 378 
L 647.222292 377.990785 
L 637.167196 377.990785 
z
" style="fill:#1f77b4;opacity:0.4;"/>
   </g>
   <g id="patch_52">
    <path clip-path="url(#p13e9e5cd06)" d="M 647.222292 378 
L 657.277387 378 
L 657.277387 377.943789 
L 647.222292 377.943789 
z
" style="fill:#1f77b4;opacity:0.4;"/>
   </g>
   <g id="patch_53">
    <path clip-path="url(#p13e9e5cd06)" d="M 154.522613 378 
L 164.577708 378 
L 164.577708 377.73336 
L 154.522613 377.73336 
z
" style="fill:#ff7f0e;opacity:0.4;"/>
   </g>
   <g id="patch_54">
    <path clip-path="url(#p13e9e5cd06)" d="M 164.577708 378 
L 174.632804 378 
L 174.632804 378 
L 164.577708 378 
z
" style="fill:#ff7f0e;opacity:0.4;"/>
   </g>
   <g id="patch_55">
    <path clip-path="url(#p13e9e5cd06)" d="M 174.632804 378 
L 184.687899 378 
L 184.687899 377.695268 
L 174.632804 377.695268 
z
" style="fill:#ff7f0e;opacity:0.4;"/>
   </g>
   <g id="patch_56">
    <path clip-path="url(#p13e9e5cd06)" d="M 184.687899 378 
L 194.742995 378 
L 194.742995 378 
L 184.687899 378 
z
" style="fill:#ff7f0e;opacity:0.4;"/>
   </g>
   <g id="patch_57">
    <path clip-path="url(#p13e9e5cd06)" d="M 194.742995 378 
L 204.79809 378 
L 204.79809 377.987303 
L 194.742995 377.987303 
z
" style="fill:#ff7f0e;opacity:0.4;"/>
   </g>
   <g id="patch_58">
    <path clip-path="url(#p13e9e5cd06)" d="M 204.79809 378 
L 214.853186 378 
L 214.853186 378 
L 204.79809 378 
z
" style="fill:#ff7f0e;opacity:0.4;"/>
   </g>
   <g id="patch_59">
    <path clip-path="url(#p13e9e5cd06)" d="M 214.853186 378 
L 224.908281 378 
L 224.908281 377.720663 
L 214.853186 377.720663 
z
" style="fill:#ff7f0e;opacity:0.4;"/>
   </g>
   <g id="patch_60">
    <path clip-path="url(#p13e9e5cd06)" d="M 224.908281 378 
L 234.963377 378 
L 234.963377 377.111199 
L 224.908281 377.111199 
z
" style="fill:#ff7f0e;opacity:0.4;"/>
   </g>
   <g id="patch_61">
    <path clip-path="url(#p13e9e5cd06)" d="M 234.963377 378 
L 245.018472 378 
L 245.018472 377.936514 
L 234.963377 377.936514 
z
" style="fill:#ff7f0e;opacity:0.4;"/>
   </g>
   <g id="patch_62">
    <path clip-path="url(#p13e9e5cd06)" d="M 245.018472 378 
L 255.073568 378 
L 255.073568 377.974606 
L 245.018472 377.974606 
z
" style="fill:#ff7f0e;opacity:0.4;"/>
   </g>
   <g id="patch_63">
    <path clip-path="url(#p13e9e5cd06)" d="M 255.073568 378 
L 265.128663 378 
L 265.128663 377.949211 
L 255.073568 377.949211 
z
" style="fill:#ff7f0e;opacity:0.4;"/>
   </g>
   <g id="patch_64">
    <path clip-path="url(#p13e9e5cd06)" d="M 265.128663 378 
L 275.183759 378 
L 275.183759 377.949211 
L 265.128663 377.949211 
z
" style="fill:#ff7f0e;opacity:0.4;"/>
   </g>
   <g id="patch_65">
    <path clip-path="url(#p13e9e5cd06)" d="M 275.183759 378 
L 285.238854 378 
L 285.238854 377.796846 
L 275.183759 377.796846 
z
" style="fill:#ff7f0e;opacity:0.4;"/>
   </g>
   <g id="patch_66">
    <path clip-path="url(#p13e9e5cd06)" d="M 285.238854 378 
L 295.29395 378 
L 295.29395 377.923817 
L 285.238854 377.923817 
z
" style="fill:#ff7f0e;opacity:0.4;"/>
   </g>
   <g id="patch_67">
    <path clip-path="url(#p13e9e5cd06)" d="M 295.29395 378 
L 305.349045 378 
L 305.349045 377.923817 
L 295.29395 377.923817 
z
" style="fill:#ff7f0e;opacity:0.4;"/>
   </g>
   <g id="patch_68">
    <path clip-path="url(#p13e9e5cd06)" d="M 305.349045 378 
L 315.404141 378 
L 315.404141 377.961909 
L 305.349045 377.961909 
z
" style="fill:#ff7f0e;opacity:0.4;"/>
   </g>
   <g id="patch_69">
    <path clip-path="url(#p13e9e5cd06)" d="M 315.404141 378 
L 325.459236 378 
L 325.459236 376.158913 
L 315.404141 376.158913 
z
" style="fill:#ff7f0e;opacity:0.4;"/>
   </g>
   <g id="patch_70">
    <path clip-path="url(#p13e9e5cd06)" d="M 325.459236 378 
L 335.514332 378 
L 335.514332 377.593691 
L 325.459236 377.593691 
z
" style="fill:#ff7f0e;opacity:0.4;"/>
   </g>
   <g id="patch_71">
    <path clip-path="url(#p13e9e5cd06)" d="M 335.514332 378 
L 345.569427 378 
L 345.569427 377.974606 
L 335.514332 377.974606 
z
" style="fill:#ff7f0e;opacity:0.4;"/>
   </g>
   <g id="patch_72">
    <path clip-path="url(#p13e9e5cd06)" d="M 345.569427 378 
L 355.624523 378 
L 355.624523 215.387581 
L 345.569427 215.387581 
z
" style="fill:#ff7f0e;opacity:0.4;"/>
   </g>
   <g id="patch_73">
    <path clip-path="url(#p13e9e5cd06)" d="M 355.624523 378 
L 365.679618 378 
L 365.679618 377.987303 
L 355.624523 377.987303 
z
" style="fill:#ff7f0e;opacity:0.4;"/>
   </g>
   <g id="patch_74">
    <path clip-path="url(#p13e9e5cd06)" d="M 365.679618 378 
L 375.734714 378 
L 375.734714 377.987303 
L 365.679618 377.987303 
z
" style="fill:#ff7f0e;opacity:0.4;"/>
   </g>
   <g id="patch_75">
    <path clip-path="url(#p13e9e5cd06)" d="M 375.734714 378 
L 385.789809 378 
L 385.789809 377.936514 
L 375.734714 377.936514 
z
" style="fill:#ff7f0e;opacity:0.4;"/>
   </g>
   <g id="patch_76">
    <path clip-path="url(#p13e9e5cd06)" d="M 385.789809 378 
L 395.844905 378 
L 395.844905 377.961909 
L 385.789809 377.961909 
z
" style="fill:#ff7f0e;opacity:0.4;"/>
   </g>
   <g id="patch_77">
    <path clip-path="url(#p13e9e5cd06)" d="M 395.844905 378 
L 405.9 378 
L 405.9 378 
L 395.844905 378 
z
" style="fill:#ff7f0e;opacity:0.4;"/>
   </g>
   <g id="patch_78">
    <path clip-path="url(#p13e9e5cd06)" d="M 405.9 378 
L 415.955095 378 
L 415.955095 377.961909 
L 405.9 377.961909 
z
" style="fill:#ff7f0e;opacity:0.4;"/>
   </g>
   <g id="patch_79">
    <path clip-path="url(#p13e9e5cd06)" d="M 415.955095 378 
L 426.010191 378 
L 426.010191 378 
L 415.955095 378 
z
" style="fill:#ff7f0e;opacity:0.4;"/>
   </g>
   <g id="patch_80">
    <path clip-path="url(#p13e9e5cd06)" d="M 426.010191 378 
L 436.065286 378 
L 436.065286 378 
L 426.010191 378 
z
" style="fill:#ff7f0e;opacity:0.4;"/>
   </g>
   <g id="patch_81">
    <path clip-path="url(#p13e9e5cd06)" d="M 436.065286 378 
L 446.120382 378 
L 446.120382 377.987303 
L 436.065286 377.987303 
z
" style="fill:#ff7f0e;opacity:0.4;"/>
   </g>
   <g id="patch_82">
    <path clip-path="url(#p13e9e5cd06)" d="M 446.120382 378 
L 456.175477 378 
L 456.175477 377.974606 
L 446.120382 377.974606 
z
" style="fill:#ff7f0e;opacity:0.4;"/>
   </g>
   <g id="patch_83">
    <path clip-path="url(#p13e9e5cd06)" d="M 456.175477 378 
L 466.230573 378 
L 466.230573 377.949211 
L 456.175477 377.949211 
z
" style="fill:#ff7f0e;opacity:0.4;"/>
   </g>
   <g id="patch_84">
    <path clip-path="url(#p13e9e5cd06)" d="M 466.230573 378 
L 476.285668 378 
L 476.285668 377.898423 
L 466.230573 377.898423 
z
" style="fill:#ff7f0e;opacity:0.4;"/>
   </g>
   <g id="patch_85">
    <path clip-path="url(#p13e9e5cd06)" d="M 476.285668 378 
L 486.340764 378 
L 486.340764 284.523571 
L 476.285668 284.523571 
z
" style="fill:#ff7f0e;opacity:0.4;"/>
   </g>
   <g id="patch_86">
    <path clip-path="url(#p13e9e5cd06)" d="M 486.340764 378 
L 496.395859 378 
L 496.395859 377.923817 
L 486.340764 377.923817 
z
" style="fill:#ff7f0e;opacity:0.4;"/>
   </g>
   <g id="patch_87">
    <path clip-path="url(#p13e9e5cd06)" d="M 496.395859 378 
L 506.450955 378 
L 506.450955 377.91112 
L 496.395859 377.91112 
z
" style="fill:#ff7f0e;opacity:0.4;"/>
   </g>
   <g id="patch_88">
    <path clip-path="url(#p13e9e5cd06)" d="M 506.450955 378 
L 516.50605 378 
L 516.50605 378 
L 506.450955 378 
z
" style="fill:#ff7f0e;opacity:0.4;"/>
   </g>
   <g id="patch_89">
    <path clip-path="url(#p13e9e5cd06)" d="M 516.50605 378 
L 526.561146 378 
L 526.561146 377.987303 
L 516.50605 377.987303 
z
" style="fill:#ff7f0e;opacity:0.4;"/>
   </g>
   <g id="patch_90">
    <path clip-path="url(#p13e9e5cd06)" d="M 526.561146 378 
L 536.616241 378 
L 536.616241 377.91112 
L 526.561146 377.91112 
z
" style="fill:#ff7f0e;opacity:0.4;"/>
   </g>
   <g id="patch_91">
    <path clip-path="url(#p13e9e5cd06)" d="M 536.616241 378 
L 546.671337 378 
L 546.671337 377.974606 
L 536.616241 377.974606 
z
" style="fill:#ff7f0e;opacity:0.4;"/>
   </g>
   <g id="patch_92">
    <path clip-path="url(#p13e9e5cd06)" d="M 546.671337 378 
L 556.726432 378 
L 556.726432 377.91112 
L 546.671337 377.91112 
z
" style="fill:#ff7f0e;opacity:0.4;"/>
   </g>
   <g id="patch_93">
    <path clip-path="url(#p13e9e5cd06)" d="M 556.726432 378 
L 566.781528 378 
L 566.781528 377.974606 
L 556.726432 377.974606 
z
" style="fill:#ff7f0e;opacity:0.4;"/>
   </g>
   <g id="patch_94">
    <path clip-path="url(#p13e9e5cd06)" d="M 566.781528 378 
L 576.836623 378 
L 576.836623 377.949211 
L 566.781528 377.949211 
z
" style="fill:#ff7f0e;opacity:0.4;"/>
   </g>
   <g id="patch_95">
    <path clip-path="url(#p13e9e5cd06)" d="M 576.836623 378 
L 586.891719 378 
L 586.891719 378 
L 576.836623 378 
z
" style="fill:#ff7f0e;opacity:0.4;"/>
   </g>
   <g id="patch_96">
    <path clip-path="url(#p13e9e5cd06)" d="M 586.891719 378 
L 596.946814 378 
L 596.946814 377.873028 
L 586.891719 377.873028 
z
" style="fill:#ff7f0e;opacity:0.4;"/>
   </g>
   <g id="patch_97">
    <path clip-path="url(#p13e9e5cd06)" d="M 596.946814 378 
L 607.00191 378 
L 607.00191 378 
L 596.946814 378 
z
" style="fill:#ff7f0e;opacity:0.4;"/>
   </g>
   <g id="patch_98">
    <path clip-path="url(#p13e9e5cd06)" d="M 607.00191 378 
L 617.057005 378 
L 617.057005 377.987303 
L 607.00191 377.987303 
z
" style="fill:#ff7f0e;opacity:0.4;"/>
   </g>
   <g id="patch_99">
    <path clip-path="url(#p13e9e5cd06)" d="M 617.057005 378 
L 627.112101 378 
L 627.112101 377.82224 
L 617.057005 377.82224 
z
" style="fill:#ff7f0e;opacity:0.4;"/>
   </g>
   <g id="patch_100">
    <path clip-path="url(#p13e9e5cd06)" d="M 627.112101 378 
L 637.167196 378 
L 637.167196 377.987303 
L 627.112101 377.987303 
z
" style="fill:#ff7f0e;opacity:0.4;"/>
   </g>
   <g id="patch_101">
    <path clip-path="url(#p13e9e5cd06)" d="M 637.167196 378 
L 647.222292 378 
L 647.222292 378 
L 637.167196 378 
z
" style="fill:#ff7f0e;opacity:0.4;"/>
   </g>
   <g id="patch_102">
    <path clip-path="url(#p13e9e5cd06)" d="M 647.222292 378 
L 657.277387 378 
L 657.277387 377.974606 
L 647.222292 377.974606 
z
" style="fill:#ff7f0e;opacity:0.4;"/>
   </g>
   <g id="matplotlib.axis_1">
    <g id="xtick_1">
     <g id="line2d_1">
      <defs>
       <path d="M 0 0 
L 0 3.5 
" id="m84bfae83f4" style="stroke:#000000;stroke-width:0.8;"/>
      </defs>
      <g>
       <use style="stroke:#000000;stroke-width:0.8;" x="154.522613" xlink:href="#m84bfae83f4" y="378"/>
      </g>
     </g>
     <g id="text_1">
      <!-- 100 -->
      <g transform="translate(141.161363 395.637812)scale(0.14 -0.14)">
       <defs>
        <path d="M 794 531 
L 1825 531 
L 1825 4091 
L 703 3866 
L 703 4441 
L 1819 4666 
L 2450 4666 
L 2450 531 
L 3481 531 
L 3481 0 
L 794 0 
L 794 531 
z
" id="DejaVuSans-31" transform="scale(0.015625)"/>
        <path d="M 2034 4250 
Q 1547 4250 1301 3770 
Q 1056 3291 1056 2328 
Q 1056 1369 1301 889 
Q 1547 409 2034 409 
Q 2525 409 2770 889 
Q 3016 1369 3016 2328 
Q 3016 3291 2770 3770 
Q 2525 4250 2034 4250 
z
M 2034 4750 
Q 2819 4750 3233 4129 
Q 3647 3509 3647 2328 
Q 3647 1150 3233 529 
Q 2819 -91 2034 -91 
Q 1250 -91 836 529 
Q 422 1150 422 2328 
Q 422 3509 836 4129 
Q 1250 4750 2034 4750 
z
" id="DejaVuSans-30" transform="scale(0.015625)"/>
       </defs>
       <use xlink:href="#DejaVuSans-31"/>
       <use x="63.623047" xlink:href="#DejaVuSans-30"/>
       <use x="127.246094" xlink:href="#DejaVuSans-30"/>
      </g>
     </g>
    </g>
    <g id="xtick_2">
     <g id="line2d_2">
      <g>
       <use style="stroke:#000000;stroke-width:0.8;" x="231.279067" xlink:href="#m84bfae83f4" y="378"/>
      </g>
     </g>
     <g id="text_2">
      <!-- 120 -->
      <g transform="translate(217.917817 395.637812)scale(0.14 -0.14)">
       <defs>
        <path d="M 1228 531 
L 3431 531 
L 3431 0 
L 469 0 
L 469 531 
Q 828 903 1448 1529 
Q 2069 2156 2228 2338 
Q 2531 2678 2651 2914 
Q 2772 3150 2772 3378 
Q 2772 3750 2511 3984 
Q 2250 4219 1831 4219 
Q 1534 4219 1204 4116 
Q 875 4013 500 3803 
L 500 4441 
Q 881 4594 1212 4672 
Q 1544 4750 1819 4750 
Q 2544 4750 2975 4387 
Q 3406 4025 3406 3419 
Q 3406 3131 3298 2873 
Q 3191 2616 2906 2266 
Q 2828 2175 2409 1742 
Q 1991 1309 1228 531 
z
" id="DejaVuSans-32" transform="scale(0.015625)"/>
       </defs>
       <use xlink:href="#DejaVuSans-31"/>
       <use x="63.623047" xlink:href="#DejaVuSans-32"/>
       <use x="127.246094" xlink:href="#DejaVuSans-30"/>
      </g>
     </g>
    </g>
    <g id="xtick_3">
     <g id="line2d_3">
      <g>
       <use style="stroke:#000000;stroke-width:0.8;" x="308.035521" xlink:href="#m84bfae83f4" y="378"/>
      </g>
     </g>
     <g id="text_3">
      <!-- 140 -->
      <g transform="translate(294.674271 395.637812)scale(0.14 -0.14)">
       <defs>
        <path d="M 2419 4116 
L 825 1625 
L 2419 1625 
L 2419 4116 
z
M 2253 4666 
L 3047 4666 
L 3047 1625 
L 3713 1625 
L 3713 1100 
L 3047 1100 
L 3047 0 
L 2419 0 
L 2419 1100 
L 313 1100 
L 313 1709 
L 2253 4666 
z
" id="DejaVuSans-34" transform="scale(0.015625)"/>
       </defs>
       <use xlink:href="#DejaVuSans-31"/>
       <use x="63.623047" xlink:href="#DejaVuSans-34"/>
       <use x="127.246094" xlink:href="#DejaVuSans-30"/>
      </g>
     </g>
    </g>
    <g id="xtick_4">
     <g id="line2d_4">
      <g>
       <use style="stroke:#000000;stroke-width:0.8;" x="384.791975" xlink:href="#m84bfae83f4" y="378"/>
      </g>
     </g>
     <g id="text_4">
      <!-- 160 -->
      <g transform="translate(371.430725 395.637812)scale(0.14 -0.14)">
       <defs>
        <path d="M 2113 2584 
Q 1688 2584 1439 2293 
Q 1191 2003 1191 1497 
Q 1191 994 1439 701 
Q 1688 409 2113 409 
Q 2538 409 2786 701 
Q 3034 994 3034 1497 
Q 3034 2003 2786 2293 
Q 2538 2584 2113 2584 
z
M 3366 4563 
L 3366 3988 
Q 3128 4100 2886 4159 
Q 2644 4219 2406 4219 
Q 1781 4219 1451 3797 
Q 1122 3375 1075 2522 
Q 1259 2794 1537 2939 
Q 1816 3084 2150 3084 
Q 2853 3084 3261 2657 
Q 3669 2231 3669 1497 
Q 3669 778 3244 343 
Q 2819 -91 2113 -91 
Q 1303 -91 875 529 
Q 447 1150 447 2328 
Q 447 3434 972 4092 
Q 1497 4750 2381 4750 
Q 2619 4750 2861 4703 
Q 3103 4656 3366 4563 
z
" id="DejaVuSans-36" transform="scale(0.015625)"/>
       </defs>
       <use xlink:href="#DejaVuSans-31"/>
       <use x="63.623047" xlink:href="#DejaVuSans-36"/>
       <use x="127.246094" xlink:href="#DejaVuSans-30"/>
      </g>
     </g>
    </g>
    <g id="xtick_5">
     <g id="line2d_5">
      <g>
       <use style="stroke:#000000;stroke-width:0.8;" x="461.548429" xlink:href="#m84bfae83f4" y="378"/>
      </g>
     </g>
     <g id="text_5">
      <!-- 180 -->
      <g transform="translate(448.187179 395.637812)scale(0.14 -0.14)">
       <defs>
        <path d="M 2034 2216 
Q 1584 2216 1326 1975 
Q 1069 1734 1069 1313 
Q 1069 891 1326 650 
Q 1584 409 2034 409 
Q 2484 409 2743 651 
Q 3003 894 3003 1313 
Q 3003 1734 2745 1975 
Q 2488 2216 2034 2216 
z
M 1403 2484 
Q 997 2584 770 2862 
Q 544 3141 544 3541 
Q 544 4100 942 4425 
Q 1341 4750 2034 4750 
Q 2731 4750 3128 4425 
Q 3525 4100 3525 3541 
Q 3525 3141 3298 2862 
Q 3072 2584 2669 2484 
Q 3125 2378 3379 2068 
Q 3634 1759 3634 1313 
Q 3634 634 3220 271 
Q 2806 -91 2034 -91 
Q 1263 -91 848 271 
Q 434 634 434 1313 
Q 434 1759 690 2068 
Q 947 2378 1403 2484 
z
M 1172 3481 
Q 1172 3119 1398 2916 
Q 1625 2713 2034 2713 
Q 2441 2713 2670 2916 
Q 2900 3119 2900 3481 
Q 2900 3844 2670 4047 
Q 2441 4250 2034 4250 
Q 1625 4250 1398 4047 
Q 1172 3844 1172 3481 
z
" id="DejaVuSans-38" transform="scale(0.015625)"/>
       </defs>
       <use xlink:href="#DejaVuSans-31"/>
       <use x="63.623047" xlink:href="#DejaVuSans-38"/>
       <use x="127.246094" xlink:href="#DejaVuSans-30"/>
      </g>
     </g>
    </g>
    <g id="xtick_6">
     <g id="line2d_6">
      <g>
       <use style="stroke:#000000;stroke-width:0.8;" x="538.304883" xlink:href="#m84bfae83f4" y="378"/>
      </g>
     </g>
     <g id="text_6">
      <!-- 200 -->
      <g transform="translate(524.943633 395.637812)scale(0.14 -0.14)">
       <use xlink:href="#DejaVuSans-32"/>
       <use x="63.623047" xlink:href="#DejaVuSans-30"/>
       <use x="127.246094" xlink:href="#DejaVuSans-30"/>
      </g>
     </g>
    </g>
    <g id="xtick_7">
     <g id="line2d_7">
      <g>
       <use style="stroke:#000000;stroke-width:0.8;" x="615.061337" xlink:href="#m84bfae83f4" y="378"/>
      </g>
     </g>
     <g id="text_7">
      <!-- 220 -->
      <g transform="translate(601.700087 395.637812)scale(0.14 -0.14)">
       <use xlink:href="#DejaVuSans-32"/>
       <use x="63.623047" xlink:href="#DejaVuSans-32"/>
       <use x="127.246094" xlink:href="#DejaVuSans-30"/>
      </g>
     </g>
    </g>
    <g id="xtick_8">
     <g id="line2d_8">
      <g>
       <use style="stroke:#000000;stroke-width:0.8;" x="691.817792" xlink:href="#m84bfae83f4" y="378"/>
      </g>
     </g>
     <g id="text_8">
      <!-- 240 -->
      <g transform="translate(678.456542 395.637812)scale(0.14 -0.14)">
       <use xlink:href="#DejaVuSans-32"/>
       <use x="63.623047" xlink:href="#DejaVuSans-34"/>
       <use x="127.246094" xlink:href="#DejaVuSans-30"/>
      </g>
     </g>
    </g>
    <g id="text_9">
     <!-- card3 -->
     <g transform="translate(386.108594 413.187187)scale(0.14 -0.14)">
      <defs>
       <path d="M 3122 3366 
L 3122 2828 
Q 2878 2963 2633 3030 
Q 2388 3097 2138 3097 
Q 1578 3097 1268 2742 
Q 959 2388 959 1747 
Q 959 1106 1268 751 
Q 1578 397 2138 397 
Q 2388 397 2633 464 
Q 2878 531 3122 666 
L 3122 134 
Q 2881 22 2623 -34 
Q 2366 -91 2075 -91 
Q 1284 -91 818 406 
Q 353 903 353 1747 
Q 353 2603 823 3093 
Q 1294 3584 2113 3584 
Q 2378 3584 2631 3529 
Q 2884 3475 3122 3366 
z
" id="DejaVuSans-63" transform="scale(0.015625)"/>
       <path d="M 2194 1759 
Q 1497 1759 1228 1600 
Q 959 1441 959 1056 
Q 959 750 1161 570 
Q 1363 391 1709 391 
Q 2188 391 2477 730 
Q 2766 1069 2766 1631 
L 2766 1759 
L 2194 1759 
z
M 3341 1997 
L 3341 0 
L 2766 0 
L 2766 531 
Q 2569 213 2275 61 
Q 1981 -91 1556 -91 
Q 1019 -91 701 211 
Q 384 513 384 1019 
Q 384 1609 779 1909 
Q 1175 2209 1959 2209 
L 2766 2209 
L 2766 2266 
Q 2766 2663 2505 2880 
Q 2244 3097 1772 3097 
Q 1472 3097 1187 3025 
Q 903 2953 641 2809 
L 641 3341 
Q 956 3463 1253 3523 
Q 1550 3584 1831 3584 
Q 2591 3584 2966 3190 
Q 3341 2797 3341 1997 
z
" id="DejaVuSans-61" transform="scale(0.015625)"/>
       <path d="M 2631 2963 
Q 2534 3019 2420 3045 
Q 2306 3072 2169 3072 
Q 1681 3072 1420 2755 
Q 1159 2438 1159 1844 
L 1159 0 
L 581 0 
L 581 3500 
L 1159 3500 
L 1159 2956 
Q 1341 3275 1631 3429 
Q 1922 3584 2338 3584 
Q 2397 3584 2469 3576 
Q 2541 3569 2628 3553 
L 2631 2963 
z
" id="DejaVuSans-72" transform="scale(0.015625)"/>
       <path d="M 2906 2969 
L 2906 4863 
L 3481 4863 
L 3481 0 
L 2906 0 
L 2906 525 
Q 2725 213 2448 61 
Q 2172 -91 1784 -91 
Q 1150 -91 751 415 
Q 353 922 353 1747 
Q 353 2572 751 3078 
Q 1150 3584 1784 3584 
Q 2172 3584 2448 3432 
Q 2725 3281 2906 2969 
z
M 947 1747 
Q 947 1113 1208 752 
Q 1469 391 1925 391 
Q 2381 391 2643 752 
Q 2906 1113 2906 1747 
Q 2906 2381 2643 2742 
Q 2381 3103 1925 3103 
Q 1469 3103 1208 2742 
Q 947 2381 947 1747 
z
" id="DejaVuSans-64" transform="scale(0.015625)"/>
       <path d="M 2597 2516 
Q 3050 2419 3304 2112 
Q 3559 1806 3559 1356 
Q 3559 666 3084 287 
Q 2609 -91 1734 -91 
Q 1441 -91 1130 -33 
Q 819 25 488 141 
L 488 750 
Q 750 597 1062 519 
Q 1375 441 1716 441 
Q 2309 441 2620 675 
Q 2931 909 2931 1356 
Q 2931 1769 2642 2001 
Q 2353 2234 1838 2234 
L 1294 2234 
L 1294 2753 
L 1863 2753 
Q 2328 2753 2575 2939 
Q 2822 3125 2822 3475 
Q 2822 3834 2567 4026 
Q 2313 4219 1838 4219 
Q 1578 4219 1281 4162 
Q 984 4106 628 3988 
L 628 4550 
Q 988 4650 1302 4700 
Q 1616 4750 1894 4750 
Q 2613 4750 3031 4423 
Q 3450 4097 3450 3541 
Q 3450 3153 3228 2886 
Q 3006 2619 2597 2516 
z
" id="DejaVuSans-33" transform="scale(0.015625)"/>
      </defs>
      <use xlink:href="#DejaVuSans-63"/>
      <use x="54.980469" xlink:href="#DejaVuSans-61"/>
      <use x="116.259766" xlink:href="#DejaVuSans-72"/>
      <use x="155.623047" xlink:href="#DejaVuSans-64"/>
      <use x="219.099609" xlink:href="#DejaVuSans-33"/>
     </g>
    </g>
   </g>
   <g id="matplotlib.axis_2">
    <g id="ytick_1">
     <g id="line2d_9">
      <defs>
       <path d="M 0 0 
L -3.5 0 
" id="ma0e879276d" style="stroke:#000000;stroke-width:0.8;"/>
      </defs>
      <g>
       <use style="stroke:#000000;stroke-width:0.8;" x="99" xlink:href="#ma0e879276d" y="378"/>
      </g>
     </g>
     <g id="text_10">
      <!-- 0.0 -->
      <g transform="translate(69.735625 383.318906)scale(0.14 -0.14)">
       <defs>
        <path d="M 684 794 
L 1344 794 
L 1344 0 
L 684 0 
L 684 794 
z
" id="DejaVuSans-2e" transform="scale(0.015625)"/>
       </defs>
       <use xlink:href="#DejaVuSans-30"/>
       <use x="63.623047" xlink:href="#DejaVuSans-2e"/>
       <use x="95.410156" xlink:href="#DejaVuSans-30"/>
      </g>
     </g>
    </g>
    <g id="ytick_2">
     <g id="line2d_10">
      <g>
       <use style="stroke:#000000;stroke-width:0.8;" x="99" xlink:href="#ma0e879276d" y="309.391094"/>
      </g>
     </g>
     <g id="text_11">
      <!-- 0.1 -->
      <g transform="translate(69.735625 314.710001)scale(0.14 -0.14)">
       <use xlink:href="#DejaVuSans-30"/>
       <use x="63.623047" xlink:href="#DejaVuSans-2e"/>
       <use x="95.410156" xlink:href="#DejaVuSans-31"/>
      </g>
     </g>
    </g>
    <g id="ytick_3">
     <g id="line2d_11">
      <g>
       <use style="stroke:#000000;stroke-width:0.8;" x="99" xlink:href="#ma0e879276d" y="240.782189"/>
      </g>
     </g>
     <g id="text_12">
      <!-- 0.2 -->
      <g transform="translate(69.735625 246.101095)scale(0.14 -0.14)">
       <use xlink:href="#DejaVuSans-30"/>
       <use x="63.623047" xlink:href="#DejaVuSans-2e"/>
       <use x="95.410156" xlink:href="#DejaVuSans-32"/>
      </g>
     </g>
    </g>
    <g id="ytick_4">
     <g id="line2d_12">
      <g>
       <use style="stroke:#000000;stroke-width:0.8;" x="99" xlink:href="#ma0e879276d" y="172.173283"/>
      </g>
     </g>
     <g id="text_13">
      <!-- 0.3 -->
      <g transform="translate(69.735625 177.492189)scale(0.14 -0.14)">
       <use xlink:href="#DejaVuSans-30"/>
       <use x="63.623047" xlink:href="#DejaVuSans-2e"/>
       <use x="95.410156" xlink:href="#DejaVuSans-33"/>
      </g>
     </g>
    </g>
    <g id="ytick_5">
     <g id="line2d_13">
      <g>
       <use style="stroke:#000000;stroke-width:0.8;" x="99" xlink:href="#ma0e879276d" y="103.564377"/>
      </g>
     </g>
     <g id="text_14">
      <!-- 0.4 -->
      <g transform="translate(69.735625 108.883283)scale(0.14 -0.14)">
       <use xlink:href="#DejaVuSans-30"/>
       <use x="63.623047" xlink:href="#DejaVuSans-2e"/>
       <use x="95.410156" xlink:href="#DejaVuSans-34"/>
      </g>
     </g>
    </g>
    <g id="text_15">
     <!-- Density -->
     <g transform="translate(62.824062 241.532031)rotate(-90)scale(0.14 -0.14)">
      <defs>
       <path d="M 1259 4147 
L 1259 519 
L 2022 519 
Q 2988 519 3436 956 
Q 3884 1394 3884 2338 
Q 3884 3275 3436 3711 
Q 2988 4147 2022 4147 
L 1259 4147 
z
M 628 4666 
L 1925 4666 
Q 3281 4666 3915 4102 
Q 4550 3538 4550 2338 
Q 4550 1131 3912 565 
Q 3275 0 1925 0 
L 628 0 
L 628 4666 
z
" id="DejaVuSans-44" transform="scale(0.015625)"/>
       <path d="M 3597 1894 
L 3597 1613 
L 953 1613 
Q 991 1019 1311 708 
Q 1631 397 2203 397 
Q 2534 397 2845 478 
Q 3156 559 3463 722 
L 3463 178 
Q 3153 47 2828 -22 
Q 2503 -91 2169 -91 
Q 1331 -91 842 396 
Q 353 884 353 1716 
Q 353 2575 817 3079 
Q 1281 3584 2069 3584 
Q 2775 3584 3186 3129 
Q 3597 2675 3597 1894 
z
M 3022 2063 
Q 3016 2534 2758 2815 
Q 2500 3097 2075 3097 
Q 1594 3097 1305 2825 
Q 1016 2553 972 2059 
L 3022 2063 
z
" id="DejaVuSans-65" transform="scale(0.015625)"/>
       <path d="M 3513 2113 
L 3513 0 
L 2938 0 
L 2938 2094 
Q 2938 2591 2744 2837 
Q 2550 3084 2163 3084 
Q 1697 3084 1428 2787 
Q 1159 2491 1159 1978 
L 1159 0 
L 581 0 
L 581 3500 
L 1159 3500 
L 1159 2956 
Q 1366 3272 1645 3428 
Q 1925 3584 2291 3584 
Q 2894 3584 3203 3211 
Q 3513 2838 3513 2113 
z
" id="DejaVuSans-6e" transform="scale(0.015625)"/>
       <path d="M 2834 3397 
L 2834 2853 
Q 2591 2978 2328 3040 
Q 2066 3103 1784 3103 
Q 1356 3103 1142 2972 
Q 928 2841 928 2578 
Q 928 2378 1081 2264 
Q 1234 2150 1697 2047 
L 1894 2003 
Q 2506 1872 2764 1633 
Q 3022 1394 3022 966 
Q 3022 478 2636 193 
Q 2250 -91 1575 -91 
Q 1294 -91 989 -36 
Q 684 19 347 128 
L 347 722 
Q 666 556 975 473 
Q 1284 391 1588 391 
Q 1994 391 2212 530 
Q 2431 669 2431 922 
Q 2431 1156 2273 1281 
Q 2116 1406 1581 1522 
L 1381 1569 
Q 847 1681 609 1914 
Q 372 2147 372 2553 
Q 372 3047 722 3315 
Q 1072 3584 1716 3584 
Q 2034 3584 2315 3537 
Q 2597 3491 2834 3397 
z
" id="DejaVuSans-73" transform="scale(0.015625)"/>
       <path d="M 603 3500 
L 1178 3500 
L 1178 0 
L 603 0 
L 603 3500 
z
M 603 4863 
L 1178 4863 
L 1178 4134 
L 603 4134 
L 603 4863 
z
" id="DejaVuSans-69" transform="scale(0.015625)"/>
       <path d="M 1172 4494 
L 1172 3500 
L 2356 3500 
L 2356 3053 
L 1172 3053 
L 1172 1153 
Q 1172 725 1289 603 
Q 1406 481 1766 481 
L 2356 481 
L 2356 0 
L 1766 0 
Q 1100 0 847 248 
Q 594 497 594 1153 
L 594 3053 
L 172 3053 
L 172 3500 
L 594 3500 
L 594 4494 
L 1172 4494 
z
" id="DejaVuSans-74" transform="scale(0.015625)"/>
       <path d="M 2059 -325 
Q 1816 -950 1584 -1140 
Q 1353 -1331 966 -1331 
L 506 -1331 
L 506 -850 
L 844 -850 
Q 1081 -850 1212 -737 
Q 1344 -625 1503 -206 
L 1606 56 
L 191 3500 
L 800 3500 
L 1894 763 
L 2988 3500 
L 3597 3500 
L 2059 -325 
z
" id="DejaVuSans-79" transform="scale(0.015625)"/>
      </defs>
      <use xlink:href="#DejaVuSans-44"/>
      <use x="77.001953" xlink:href="#DejaVuSans-65"/>
      <use x="138.525391" xlink:href="#DejaVuSans-6e"/>
      <use x="201.904297" xlink:href="#DejaVuSans-73"/>
      <use x="254.003906" xlink:href="#DejaVuSans-69"/>
      <use x="281.787109" xlink:href="#DejaVuSans-74"/>
      <use x="320.996094" xlink:href="#DejaVuSans-79"/>
     </g>
    </g>
   </g>
   <g id="line2d_14">
    <path clip-path="url(#p13e9e5cd06)" d="M 145.653384 377.998666 
L 156.115559 377.86191 
L 163.962191 377.764199 
L 169.193278 377.964519 
L 171.808822 377.850233 
L 177.03991 377.044797 
L 179.655454 377.24561 
L 182.270998 377.723948 
L 184.886542 377.948708 
L 192.733173 377.988069 
L 213.657525 377.926288 
L 218.888612 377.423464 
L 226.735244 377.543332 
L 239.812963 377.979574 
L 260.737314 377.983418 
L 271.19949 377.914957 
L 286.892753 377.858709 
L 299.970473 377.936166 
L 310.432648 377.965149 
L 313.048192 377.908723 
L 315.663736 377.712374 
L 320.894824 377.002432 
L 323.510368 377.035843 
L 326.125912 377.296908 
L 328.741455 377.266336 
L 331.356999 377.098465 
L 333.972543 377.241439 
L 336.588087 376.353713 
L 339.203631 361.576139 
L 341.819175 282.867978 
L 344.434719 123.851662 
L 347.050263 67.371429 
L 349.665806 204.402176 
L 352.28135 333.637939 
L 354.896894 372.808731 
L 357.512438 377.71591 
L 360.127982 377.989604 
L 386.283421 377.96292 
L 394.130053 377.815402 
L 399.36114 377.981752 
L 425.516579 377.9934 
L 469.980825 377.936533 
L 472.596369 377.292645 
L 475.211913 372.651545 
L 477.827457 359.13045 
L 480.443001 347.526284 
L 483.058545 355.496187 
L 485.674088 370.393476 
L 488.289632 376.783679 
L 490.905176 377.819829 
L 498.751808 377.965206 
L 517.060615 377.937443 
L 553.678229 377.902014 
L 561.524861 377.997391 
L 582.449212 377.940876 
L 590.295844 377.854132 
L 600.758019 377.985821 
L 666.146616 377.999965 
L 666.146616 377.999965 
" style="fill:none;stroke:#1f77b4;stroke-linecap:square;stroke-width:1.5;"/>
   </g>
   <g id="line2d_15">
    <path clip-path="url(#p13e9e5cd06)" d="M 126.9 377.999346 
L 157.744221 377.880703 
L 182.980402 377.881355 
L 202.608543 377.96277 
L 213.824623 377.773862 
L 225.040704 377.503921 
L 233.452764 377.612366 
L 247.472864 377.928045 
L 267.101005 377.942065 
L 306.357286 377.75863 
L 311.965327 377.462719 
L 314.769347 377.186554 
L 317.573367 376.715993 
L 320.377387 375.837869 
L 323.181407 374.157232 
L 325.985427 371.072182 
L 328.789447 365.85994 
L 331.593467 357.93299 
L 334.397487 347.242231 
L 340.005528 322.127738 
L 342.809548 312.207177 
L 345.613568 307.315438 
L 348.417588 308.75008 
L 351.221608 316.147522 
L 354.025628 327.639777 
L 356.829648 340.624092 
L 359.633668 352.714251 
L 362.437688 362.404995 
L 365.241709 369.228776 
L 368.045729 373.496963 
L 370.849749 375.883883 
L 373.653769 377.081799 
L 376.457789 377.622091 
L 379.261809 377.840873 
L 384.869849 377.946472 
L 432.538191 377.99335 
L 446.558291 377.937747 
L 449.362312 377.852288 
L 452.166332 377.639126 
L 454.970352 377.151276 
L 457.774372 376.138167 
L 460.578392 374.239915 
L 463.382412 371.046486 
L 466.186432 366.252213 
L 468.990452 359.887107 
L 474.598492 345.336005 
L 477.402513 339.81203 
L 480.206533 337.299264 
L 483.010553 338.455915 
L 485.814573 342.975778 
L 488.618593 349.719272 
L 491.422613 357.178459 
L 494.226633 364.017951 
L 497.030653 369.430766 
L 499.834673 373.200431 
L 502.638693 375.536366 
L 505.442714 376.833827 
L 508.246734 377.483585 
L 511.050754 377.778489 
L 516.658794 377.944704 
L 539.090955 377.945351 
L 684.9 377.999935 
L 684.9 377.999935 
" style="fill:none;stroke:#ff7f0e;stroke-linecap:square;stroke-width:1.5;"/>
   </g>
   <g id="patch_103">
    <path d="M 99 378 
L 99 51.84 
" style="fill:none;stroke:#000000;stroke-linecap:square;stroke-linejoin:miter;stroke-width:0.8;"/>
   </g>
   <g id="patch_104">
    <path d="M 712.8 378 
L 712.8 51.84 
" style="fill:none;stroke:#000000;stroke-linecap:square;stroke-linejoin:miter;stroke-width:0.8;"/>
   </g>
   <g id="patch_105">
    <path d="M 99 378 
L 712.8 378 
" style="fill:none;stroke:#000000;stroke-linecap:square;stroke-linejoin:miter;stroke-width:0.8;"/>
   </g>
   <g id="patch_106">
    <path d="M 99 51.84 
L 712.8 51.84 
" style="fill:none;stroke:#000000;stroke-linecap:square;stroke-linejoin:miter;stroke-width:0.8;"/>
   </g>
  </g>
  <g id="legend_1">
   <g id="patch_107">
    <path d="M 676.82375 52.85875 
L 782.2 52.85875 
Q 785 52.85875 785 50.05875 
L 785 9.8 
Q 785 7 782.2 7 
L 676.82375 7 
Q 674.02375 7 674.02375 9.8 
L 674.02375 50.05875 
Q 674.02375 52.85875 676.82375 52.85875 
z
" style="fill:#ffffff;opacity:0.8;stroke:#cccccc;stroke-linejoin:miter;"/>
   </g>
   <g id="line2d_16">
    <path d="M 679.62375 18.897812 
L 707.62375 18.897812 
" style="fill:none;stroke:#1f77b4;stroke-linecap:square;stroke-width:1.5;"/>
   </g>
   <g id="line2d_17"/>
   <g id="text_16">
    <!-- Légitime -->
    <g transform="translate(718.82375 23.797812)scale(0.14 -0.14)">
     <defs>
      <path d="M 628 4666 
L 1259 4666 
L 1259 531 
L 3531 531 
L 3531 0 
L 628 0 
L 628 4666 
z
" id="DejaVuSans-4c" transform="scale(0.015625)"/>
      <path d="M 3597 1894 
L 3597 1613 
L 953 1613 
Q 991 1019 1311 708 
Q 1631 397 2203 397 
Q 2534 397 2845 478 
Q 3156 559 3463 722 
L 3463 178 
Q 3153 47 2828 -22 
Q 2503 -91 2169 -91 
Q 1331 -91 842 396 
Q 353 884 353 1716 
Q 353 2575 817 3079 
Q 1281 3584 2069 3584 
Q 2775 3584 3186 3129 
Q 3597 2675 3597 1894 
z
M 3022 2063 
Q 3016 2534 2758 2815 
Q 2500 3097 2075 3097 
Q 1594 3097 1305 2825 
Q 1016 2553 972 2059 
L 3022 2063 
z
M 2469 5119 
L 3091 5119 
L 2072 3944 
L 1594 3944 
L 2469 5119 
z
" id="DejaVuSans-e9" transform="scale(0.015625)"/>
      <path d="M 2906 1791 
Q 2906 2416 2648 2759 
Q 2391 3103 1925 3103 
Q 1463 3103 1205 2759 
Q 947 2416 947 1791 
Q 947 1169 1205 825 
Q 1463 481 1925 481 
Q 2391 481 2648 825 
Q 2906 1169 2906 1791 
z
M 3481 434 
Q 3481 -459 3084 -895 
Q 2688 -1331 1869 -1331 
Q 1566 -1331 1297 -1286 
Q 1028 -1241 775 -1147 
L 775 -588 
Q 1028 -725 1275 -790 
Q 1522 -856 1778 -856 
Q 2344 -856 2625 -561 
Q 2906 -266 2906 331 
L 2906 616 
Q 2728 306 2450 153 
Q 2172 0 1784 0 
Q 1141 0 747 490 
Q 353 981 353 1791 
Q 353 2603 747 3093 
Q 1141 3584 1784 3584 
Q 2172 3584 2450 3431 
Q 2728 3278 2906 2969 
L 2906 3500 
L 3481 3500 
L 3481 434 
z
" id="DejaVuSans-67" transform="scale(0.015625)"/>
      <path d="M 3328 2828 
Q 3544 3216 3844 3400 
Q 4144 3584 4550 3584 
Q 5097 3584 5394 3201 
Q 5691 2819 5691 2113 
L 5691 0 
L 5113 0 
L 5113 2094 
Q 5113 2597 4934 2840 
Q 4756 3084 4391 3084 
Q 3944 3084 3684 2787 
Q 3425 2491 3425 1978 
L 3425 0 
L 2847 0 
L 2847 2094 
Q 2847 2600 2669 2842 
Q 2491 3084 2119 3084 
Q 1678 3084 1418 2786 
Q 1159 2488 1159 1978 
L 1159 0 
L 581 0 
L 581 3500 
L 1159 3500 
L 1159 2956 
Q 1356 3278 1631 3431 
Q 1906 3584 2284 3584 
Q 2666 3584 2933 3390 
Q 3200 3197 3328 2828 
z
" id="DejaVuSans-6d" transform="scale(0.015625)"/>
     </defs>
     <use xlink:href="#DejaVuSans-4c"/>
     <use x="53.962891" xlink:href="#DejaVuSans-e9"/>
     <use x="115.486328" xlink:href="#DejaVuSans-67"/>
     <use x="178.962891" xlink:href="#DejaVuSans-69"/>
     <use x="206.746094" xlink:href="#DejaVuSans-74"/>
     <use x="245.955078" xlink:href="#DejaVuSans-69"/>
     <use x="273.738281" xlink:href="#DejaVuSans-6d"/>
     <use x="371.150391" xlink:href="#DejaVuSans-65"/>
    </g>
   </g>
   <g id="line2d_18">
    <path d="M 679.62375 39.447187 
L 707.62375 39.447187 
" style="fill:none;stroke:#ff7f0e;stroke-linecap:square;stroke-width:1.5;"/>
   </g>
   <g id="line2d_19"/>
   <g id="text_17">
    <!-- Fraude -->
    <g transform="translate(718.82375 44.347187)scale(0.14 -0.14)">
     <defs>
      <path d="M 628 4666 
L 3309 4666 
L 3309 4134 
L 1259 4134 
L 1259 2759 
L 3109 2759 
L 3109 2228 
L 1259 2228 
L 1259 0 
L 628 0 
L 628 4666 
z
" id="DejaVuSans-46" transform="scale(0.015625)"/>
      <path d="M 544 1381 
L 544 3500 
L 1119 3500 
L 1119 1403 
Q 1119 906 1312 657 
Q 1506 409 1894 409 
Q 2359 409 2629 706 
Q 2900 1003 2900 1516 
L 2900 3500 
L 3475 3500 
L 3475 0 
L 2900 0 
L 2900 538 
Q 2691 219 2414 64 
Q 2138 -91 1772 -91 
Q 1169 -91 856 284 
Q 544 659 544 1381 
z
M 1991 3584 
L 1991 3584 
z
" id="DejaVuSans-75" transform="scale(0.015625)"/>
     </defs>
     <use xlink:href="#DejaVuSans-46"/>
     <use x="50.269531" xlink:href="#DejaVuSans-72"/>
     <use x="91.382812" xlink:href="#DejaVuSans-61"/>
     <use x="152.662109" xlink:href="#DejaVuSans-75"/>
     <use x="216.041016" xlink:href="#DejaVuSans-64"/>
     <use x="279.517578" xlink:href="#DejaVuSans-65"/>
    </g>
   </g>
  </g>
 </g>
 <defs>
  <clipPath id="p13e9e5cd06">
   <rect height="326.16" width="613.8" x="99" y="51.84"/>
  </clipPath>
 </defs>
</svg>
